# xmcd
#
# Track frame offsets: 
#        150
#        9407
#        21183
#        35855
#        45387
#        57019
#        73960
#        86240
#        98322
#        109329
#        123052
#        135203
#        149637
#        168369
#        182891
#        206963
#        222334
#        239194
#        284382
#        317020
#        329100
#
# Disc length: 4713 seconds
#
# Revision: 0
# Processed by: cddbd v1.5.2PL0 Copyright (c) Steve Scherf et al.
# Submitted via: ExactAudioCopyFreeDBPlugin 1.0
#
DISCID=43126715
DTITLE=The Who - Member Missing
DYEAR=2002
DGENRE=Rock
TTITLE0=Can't Explain
TTITLE1=I Choose
TTITLE2=My Generation
TTITLE3=Substitute
TTITLE4=I'm A Boy
TTITLE5=The Ox
TTITLE6=A Legal Matter
TTITLE7=Happy Jack
TTITLE8=Boris The Spider
TTITLE9=The Kids Are Alright
TTITLE10=Pictures Of Lily
TTITLE11=Summertime Blues
TTITLE12=I Can See For Miles
TTITLE13=Magic Bus
TTITLE14=Overture
TTITLE15=Amazing Journey
TTITLE16=Sparks
TTITLE17=Underture
TTITLE18=?-Long Live Rock
TTITLE19=Young Man Blues
TTITLE20=Naked Eye
EXTD=
EXTT0=
EXTT1=
EXTT2=
EXTT3=
EXTT4=
EXTT5=
EXTT6=
EXTT7=
EXTT8=
EXTT9=
EXTT10=
EXTT11=
EXTT12=
EXTT13=
EXTT14=
EXTT15=
EXTT16=
EXTT17=
EXTT18=
EXTT19=
EXTT20=
PLAYORDER=
